<?xml version="1.0" standalone="no"?><!DOCTYPE svg PUBLIC "-//W3C//DTD SVG 1.1//EN" "http://www.w3.org/Graphics/SVG/1.1/DTD/svg11.dtd"><svg class="icon" width="48px" height="48.00px" viewBox="0 0 1024 1024" version="1.1" xmlns="http://www.w3.org/2000/svg"><path  d="M114.9 232.6C145.2 265 261 329.2 292.3 346.2c5.4 3 10 7.3 13.2 12.6 40 66.5 60.4 196 203.8 273.7 16.1 8.7 34.6-6.8 28.5-24.1-27.3-78-56.4-197.6-0.4-178.7 39 13.2 286.3 95.8 286.3 95.8 21.4 0 96.7-126.9 126.9-189.2 8.3-17.2 1.5-37.9-15.5-46.7L891.3 267c-11-5.7-24.1-5.2-34.6 1.3-21.6 13.2-59.7 37.1-91.1 59-77.8 54.3-210.2-69.4-435.5-165.2-31.9-13.6-197.2-68.3-263.3 1.1-22.8 24.1 23.5 43.1 48.1 69.4zM637.2 164.9c-6.3-3.9-13.6-5.8-21-5.3l-155.7 10.2c-10 0.7-12.9 13.9-4.2 18.7l104.1 57.3c10.1 5.5 22.2 5.8 32.5 0.7l41.1-20.2c24.7-12.2 26.5-46.8 3.2-61.4zM962.8 759.7c0-46.9-39.8-84.9-89-84.9-7.6 0-15 0.9-22 2.6-14.6 3.5-29.7-2.3-38-14.7-51-76.1-135.4-125.9-230.9-125.9-25.2 0-9 65.8 5.6 112.2 8.5 27.2-17.1 52.9-44.2 44.1-65.8-21.3-141.7-89.7-160.9-69.6-17.1 17.9-31.9 38.1-44.2 60.1-11.2 20.2-38.6 24-55.2 8-23.6-22.7-56.4-36.8-92.6-36.8-72.1 0-130.5 55.7-130.5 124.5v0.5s-0.1 0-0.1 0.1v143.3c0 22.1 17.9 40 40 40h822.6c22.1 0 40-17.9 40-40v-163c-0.2-0.1-0.3-0.1-0.5-0.2-0.1-0.1-0.1-0.2-0.1-0.3z" /></svg>