<svg xmlns="http://www.w3.org/2000/svg" viewBox="0 0 17.1 16.15">
  <path id="home" class="cls-1" d="M75.444,91.7l-7.288-7.284-.489-.489a.594.594,0,0,0-.837,0L59.054,91.7a1.205,1.205,0,0,0-.355.868,1.219,1.219,0,0,0,1.224,1.194h.8V99.9H73.773V93.757h.819a1.207,1.207,0,0,0,.853-2.062Zm-7.139,6.847H66.193V94.694h2.113Zm4.11-6.143v6.143h-2.9v-4.3a.754.754,0,0,0-.754-.754H65.74a.754.754,0,0,0-.754.754v4.3h-2.9V92.4H60.272l6.979-6.973.436.436L74.228,92.4Z" transform="translate(-58.699 -83.75)"/>
</svg>
