<?xml version="1.0" standalone="no"?><!DOCTYPE svg PUBLIC "-//W3C//DTD SVG 1.1//EN" "http://www.w3.org/Graphics/SVG/1.1/DTD/svg11.dtd"><svg class="icon" width="48px" height="48.00px" viewBox="0 0 1024 1024" version="1.1" xmlns="http://www.w3.org/2000/svg"><path d="M514.22 512.69a2.41 2.41 0 0 1-0.29-4.75c84-19.2 146.77-95.93 146.77-187.67 0-106.21-84.15-192.32-188-192.32s-187.89 86.11-187.89 192.32c0 92.1 63.27 169.06 147.76 187.89a2.41 2.41 0 0 1-0.27 4.75C252.55 533.33 111 685.56 98.87 872a22.12 22.12 0 0 0 22 23.57h706.77a22.1 22.1 0 0 0 22-23.57c-12.15-187.13-154.71-339.79-335.42-359.31zM888.54 424.46m-11.92 0l-156.26 0q-11.92 0-11.92-11.92l0-18.33q0-11.92 11.92-11.92l156.26 0q11.92 0 11.92 11.92l0 18.33q0 11.92-11.92 11.92ZM928 319.27m-11.92 0l-195.73 0q-11.92 0-11.92-11.92l0-18.33q0-11.92 11.92-11.92l195.73 0q11.92 0 11.92 11.92l0 18.33q0 11.92-11.92 11.92ZM928 529.66m-11.92 0l-195.73 0q-11.92 0-11.92-11.92l0-18.33q0-11.92 11.92-11.92l195.73 0q11.92 0 11.92 11.92l0 18.33q0 11.92-11.92 11.92Z" /></svg>