<?xml version="1.0" standalone="no"?><!DOCTYPE svg PUBLIC "-//W3C//DTD SVG 1.1//EN" "http://www.w3.org/Graphics/SVG/1.1/DTD/svg11.dtd"><svg class="icon" width="32px" height="32.00px" viewBox="0 0 1024 1024" version="1.1" xmlns="http://www.w3.org/2000/svg"><path  d="M954.484 554.804l-884.284 0c-19.021 0-34.454-15.452-34.454-34.479 0-19.026 15.435-34.466 34.454-34.466l884.284 0c19.014 0 34.454 15.44 34.454 34.466 0 19.027-15.44 34.479-34.454 34.479M908.551 352.912c-19.014 0-34.454-15.427-34.454-34.479l0-149.371-149.297 0c-19.013 0-34.453-15.445-34.453-34.473 0-19.027 15.441-34.473 34.453-34.473l183.75 0c19.014 0 34.454 15.445 34.454 34.473l0 183.843c0 19.053-15.44 34.479-34.454 34.479M299.885 169.061l-149.297 0 0 149.371c0 19.052-15.435 34.479-34.454 34.479-19.013 0-34.453-15.427-34.453-34.479l0-183.842c0-19.027 15.44-34.473 34.453-34.473l183.75 0c19.014 0 34.454 15.445 34.454 34.473 0 19.026-15.44 34.471-34.454 34.471M116.134 692.682c19.021 0 34.454 15.453 34.454 34.479l0 149.371 149.296 0c19.014 0 34.454 15.441 34.454 34.479 0 19.026-15.44 34.466-34.454 34.466l-183.749 0c-19.013 0-34.453-15.441-34.453-34.466l0-183.851c0-19.026 15.44-34.479 34.453-34.479M724.8 876.531l149.296 0 0-149.371c0-19.026 15.441-34.479 34.454-34.479s34.454 15.453 34.454 34.479l0 183.851c0 19.026-15.441 34.466-34.454 34.466l-183.749 0c-19.013 0-34.453-15.441-34.453-34.466-0.001-19.04 15.44-34.479 34.453-34.479z" /></svg>