<?xml version="1.0" standalone="no"?><!DOCTYPE svg PUBLIC "-//W3C//DTD SVG 1.1//EN" "http://www.w3.org/Graphics/SVG/1.1/DTD/svg11.dtd"><svg class="icon" width="48px" height="48.00px" viewBox="0 0 1024 1024" version="1.1" xmlns="http://www.w3.org/2000/svg"><path  d="M36.162618 987.80873l346.616322 0L382.77894 639.654378 36.162618 639.654378 36.162618 987.80873zM165.411307 769.507842l88.11792 0 0 88.5078L165.411307 858.015641 165.411307 769.507842zM165.411307 165.985382l217.337957 0L382.749264 36.163641 36.162618 36.163641l0 348.181981L165.411307 384.345622 165.411307 165.985382zM641.248689 987.836359l140.995221 0L782.243911 858.016665 641.248689 858.016665 641.248689 987.836359zM641.248689 36.163641l0 129.821741 217.337957 0 0 218.359216 129.250736 0L987.837382 36.163641 641.248689 36.163641zM36.162618 555.48335l951.674765 0 0-82.629929-951.674765 0L36.162618 555.48335zM858.586646 987.836359l129.250736 0L987.837382 639.654378 858.586646 639.654378 858.586646 987.836359z" /></svg>